<svg width="27" height="43" viewBox="0 0 27 43" fill="none" xmlns="http://www.w3.org/2000/svg">
<path d="M25.4091 6.94946C22.2997 5.04629 18.7323 2.50455 14.6346 1.62809C10.5249 0.75163 6.55979 0.563817 2.72725 0.914401C1.89566 0.989526 1.2569 1.86599 1.11228 3.08051C0.642248 6.96198 1.32921 13.1849 1.67872 19.4453C2.08849 26.8326 3.46242 36.5112 4.14939 37.8134C7.04187 39.8167 6.84904 39.7291 10.1754 41.9453C11.8627 43.0722 13.1281 43.4979 14.3936 41.8201C14.4539 41.7324 14.5864 41.482 14.6587 41.3819L20.4558 25.5805L26.4336 9.4912C26.7951 8.50205 26.2889 7.48786 25.4091 6.94946Z" fill="#44D2B0"/>
</svg>
