<svg width="27" height="41" viewBox="0 0 27 41" fill="none" xmlns="http://www.w3.org/2000/svg">
<path d="M25.8297 4.78356C22.889 3.20593 18.8636 1.03982 14.0548 0.501425C9.35455 -0.0369726 5.19661 0.964697 1.94257 1.81612C1.05072 2.05401 0.484273 3.08072 0.616845 4.17004C1.20739 8.8278 2.81031 14.4998 3.82268 20.3345C4.75069 25.6684 6.49823 31.0774 6.94415 33.5565C7.66727 37.5632 8.60733 38.0139 10.9213 39.817C11.8855 40.5682 13.8379 41.1316 14.9226 39.5165C14.9587 39.4664 15.1034 39.1158 15.1395 39.0657L20.8763 23.4146L26.8541 7.3253C27.2156 6.32363 26.7456 5.27188 25.8297 4.78356Z" fill="#7BE9AE"/>
</svg>
