<svg width="29" height="32" viewBox="0 0 29 32" fill="none" xmlns="http://www.w3.org/2000/svg">
<path d="M4.11559 27.649H21.7017L20.8618 24.856C20.9864 24.9675 28.0669 31.2008 28.0669 31.2008V3.93578C27.9831 2.24098 26.5623 0.800781 24.8011 0.800781L4.12176 0.804581C2.36179 0.804581 0.933594 2.24731 0.933594 3.94211V24.5128C0.933594 26.3 2.35933 27.649 4.11559 27.649ZM17.1248 7.99925L17.0841 8.01445L17.0989 7.99925H17.1248ZM7.71323 9.60665C9.97393 7.91692 12.0694 7.99798 12.0694 7.99798L12.2383 8.16898C9.47196 8.84665 8.21766 10.1158 8.21766 10.1158C8.34593 10.088 13.9317 6.77818 20.7002 10.1994C20.7002 10.1994 19.4435 9.01258 16.8473 8.25258L17.0767 8.02078C17.4356 8.02205 19.3349 8.09045 21.3675 9.61678C21.3675 9.61678 23.6417 13.6068 23.6417 18.5088C23.5665 18.415 22.2308 20.619 18.7935 20.695C18.7935 20.695 18.2114 20.0187 17.797 19.4284C19.8073 18.8356 20.5596 17.65 20.5596 17.65C16.6463 20.1808 13.2164 19.7856 9.11306 18.0756C9.07483 18.0756 9.05756 18.0578 9.03783 18.0376V18.03C9.0181 18.011 9.00083 17.992 8.96259 17.992H8.88859C8.63699 17.8222 8.46926 17.7386 8.46926 17.7386C8.46926 17.7386 9.22036 18.9242 11.1505 19.517C10.6436 20.1111 10.1417 20.7862 10.1417 20.7862C6.70559 20.7027 5.45253 18.4986 5.45253 18.4986C5.45253 13.589 7.71323 9.60665 7.71323 9.60665Z" fill="#35353A"/>
<path d="M17.3469 16.9782C18.2237 16.9782 18.9378 16.2182 18.9378 15.2808C18.9378 14.3498 18.2274 13.5898 17.3469 13.5898V13.5936C16.4737 13.5936 15.7583 14.3511 15.7559 15.2884C15.7559 16.2182 16.47 16.9782 17.3469 16.9782Z" fill="#35353A"/>
<path d="M11.6515 16.9782C12.5284 16.9782 13.2425 16.2182 13.2425 15.2808C13.2425 14.3498 12.5334 13.5898 11.6565 13.5898L11.6515 13.5936C10.7746 13.5936 10.0605 14.3511 10.0605 15.2884C10.0605 16.2182 10.7746 16.9782 11.6515 16.9782Z" fill="#35353A"/>
</svg>
