<svg width="20" height="20" viewBox="0 0 20 20" fill="none" xmlns="http://www.w3.org/2000/svg">
<path d="M2.5 2.5C2.5 1.83696 2.76339 1.20107 3.23223 0.732233C3.70107 0.263392 4.33696 0 5 0L15 0C15.663 0 16.2989 0.263392 16.7678 0.732233C17.2366 1.20107 17.5 1.83696 17.5 2.5V19.375C17.4999 19.4881 17.4692 19.599 17.4111 19.6959C17.353 19.7929 17.2697 19.8723 17.17 19.9257C17.0703 19.979 16.9581 20.0044 16.8451 19.999C16.7322 19.9936 16.6229 19.9576 16.5287 19.895L10 16.3762L3.47125 19.895C3.37713 19.9576 3.26779 19.9936 3.15486 19.999C3.04194 20.0044 2.92967 19.979 2.83 19.9257C2.73033 19.8723 2.64701 19.7929 2.58889 19.6959C2.53078 19.599 2.50006 19.4881 2.5 19.375V2.5ZM5 1.25C4.66848 1.25 4.35054 1.3817 4.11612 1.61612C3.8817 1.85054 3.75 2.16848 3.75 2.5V18.2075L9.65375 15.105C9.75633 15.0367 9.87679 15.0003 10 15.0003C10.1232 15.0003 10.2437 15.0367 10.3463 15.105L16.25 18.2075V2.5C16.25 2.16848 16.1183 1.85054 15.8839 1.61612C15.6495 1.3817 15.3315 1.25 15 1.25H5Z" fill="#FF647C"/>
<path d="M10 5C10.1658 5 10.3247 5.06585 10.4419 5.18306C10.5592 5.30027 10.625 5.45924 10.625 5.625V7.5H12.5C12.6658 7.5 12.8247 7.56585 12.9419 7.68306C13.0592 7.80027 13.125 7.95924 13.125 8.125C13.125 8.29076 13.0592 8.44973 12.9419 8.56694C12.8247 8.68415 12.6658 8.75 12.5 8.75H10.625V10.625C10.625 10.7908 10.5592 10.9497 10.4419 11.0669C10.3247 11.1842 10.1658 11.25 10 11.25C9.83424 11.25 9.67527 11.1842 9.55806 11.0669C9.44085 10.9497 9.375 10.7908 9.375 10.625V8.75H7.5C7.33424 8.75 7.17527 8.68415 7.05806 8.56694C6.94085 8.44973 6.875 8.29076 6.875 8.125C6.875 7.95924 6.94085 7.80027 7.05806 7.68306C7.17527 7.56585 7.33424 7.5 7.5 7.5H9.375V5.625C9.375 5.45924 9.44085 5.30027 9.55806 5.18306C9.67527 5.06585 9.83424 5 10 5V5Z" fill="#FF647C"/>
</svg>
