<svg width="20" height="18" viewBox="0 0 20 18" fill="none" xmlns="http://www.w3.org/2000/svg">
<path fill-rule="evenodd" clip-rule="evenodd" d="M2.1875 0C1.60734 0 1.05094 0.207428 0.640704 0.576652C0.230468 0.945876 0 1.44665 0 1.96881L0 12.6567C0 13.7434 0.98 14.6255 2.1875 14.6255H3.75V16.3614C3.75013 16.6855 3.85701 17.0023 4.05714 17.2718C4.25727 17.5412 4.54166 17.7512 4.87437 17.8753C5.20709 17.9993 5.57318 18.0317 5.92638 17.9685C6.27959 17.9053 6.60405 17.7493 6.85875 17.5202L10.0763 14.6255H17.8125C18.3927 14.6255 18.9491 14.418 19.3593 14.0488C19.7695 13.6796 20 13.1788 20 12.6567V1.96881C20 1.44665 19.7695 0.945876 19.3593 0.576652C18.9491 0.207428 18.3927 0 17.8125 0H2.1875ZM1.875 1.96881C1.875 1.89422 1.90792 1.82268 1.96653 1.76993C2.02513 1.71719 2.10462 1.68755 2.1875 1.68755H17.8125C17.8954 1.68755 17.9749 1.71719 18.0335 1.76993C18.0921 1.82268 18.125 1.89422 18.125 1.96881V12.6567C18.125 12.7312 18.0921 12.8028 18.0335 12.8555C17.9749 12.9083 17.8954 12.9379 17.8125 12.9379H9.6875C9.43894 12.9381 9.20065 13.0271 9.025 13.1854L5.625 16.2455V13.7817C5.625 13.5579 5.52623 13.3433 5.35041 13.185C5.1746 13.0268 4.93614 12.9379 4.6875 12.9379H2.1875C2.10462 12.9379 2.02513 12.9083 1.96653 12.8555C1.90792 12.8028 1.875 12.7312 1.875 12.6567V1.96881Z" fill="#FF647C"/>
</svg>
