<svg xmlns="http://www.w3.org/2000/svg" xmlns:xlink="http://www.w3.org/1999/xlink" version="1.1" id="Capa_1" x="0px" y="0px" viewBox="0 0 464 464" style="enable-background:new 0 0 464 464;" xml:space="preserve" width="60px" class=""><g><path d="M456.55,181.774c-13.568-46.832-42.928-89.024-82.67-118.803C334.988,33.829,288.852,17.727,240,16.14V8  c0-4.418-3.582-8-8-8s-8,3.582-8,8v8.14c-48.852,1.586-94.988,17.688-133.88,46.83C50.378,92.75,21.018,134.942,7.45,181.774  c-1.229,4.244,1.214,8.681,5.458,9.91c0.898,0.26,1.802,0.346,2.685,0.295C15.728,191.986,15.862,192,16,192c4.418,0,8-3.582,8-8  c0-5.927,10.235-12.556,23.933-12.556S71.866,178.073,71.866,184c0,4.418,3.582,8,8,8c0.023,0,0.044-0.003,0.067-0.003  c0.023,0,0.044,0.003,0.067,0.003c0.02,0,0.039-0.003,0.06-0.003c3.761,0.039,7.139-2.585,7.915-6.406  c0.291-1.432,0.593-2.858,0.906-4.281c2.899-4.689,12.825-9.866,27.053-9.866c17.052,0,27.933,7.437,27.933,12.556  c0,4.418,3.582,8,8,8c0.038,0,0.074-0.005,0.111-0.006c1.425,0.032,2.783-0.315,3.969-0.959c0.004-0.002,0.008-0.005,0.012-0.007  c0.221-0.121,0.437-0.251,0.645-0.392c0.01-0.007,0.02-0.015,0.03-0.022c0.202-0.138,0.398-0.283,0.586-0.438  c0.009-0.008,0.018-0.016,0.027-0.024c0.187-0.156,0.368-0.319,0.541-0.491c0.011-0.011,0.02-0.022,0.031-0.033  c0.169-0.171,0.332-0.348,0.485-0.534c0.013-0.016,0.025-0.033,0.038-0.05c0.147-0.181,0.289-0.367,0.42-0.562  c0.023-0.034,0.043-0.071,0.066-0.106c0.117-0.178,0.23-0.359,0.333-0.547c0.035-0.065,0.064-0.134,0.098-0.199  c0.083-0.162,0.166-0.324,0.237-0.493c0.048-0.112,0.086-0.229,0.129-0.344c0.047-0.128,0.099-0.253,0.14-0.384  c0.053-0.168,0.093-0.342,0.135-0.515c0.02-0.084,0.047-0.166,0.065-0.251c0.041-0.195,0.068-0.394,0.094-0.594  c0.009-0.067,0.024-0.132,0.032-0.2c0.001-0.009,0.002-0.017,0.003-0.026c0-0.003,0.001-0.005,0.001-0.008  c0.056-0.526,0.117-1.049,0.174-1.574c1.226-3.867,11.152-11.796,31.8-11.796c22.114,0,31.933,9.098,31.933,12.556v232h-48  c-13.234,0-24,10.766-24,24v16c0,4.418,3.582,8,8,8h144c4.418,0,8-3.582,8-8v-16c0-13.234-10.766-24-24-24h-48V185.424  c0.083-0.463,0.134-0.937,0.134-1.424c0-3.458,9.819-12.556,31.933-12.556c19.843,0,29.781,7.323,31.614,11.325  c0.077,0.693,0.156,1.384,0.23,2.079c0.438,4.105,3.908,7.152,7.945,7.152c0.025,0,0.05-0.004,0.074-0.004  c0.023,0,0.046,0.003,0.069,0.003c0.023,0,0.044-0.003,0.067-0.003c0.023,0,0.044,0.003,0.067,0.003c4.418,0,8-3.582,8-8  c0-5.119,10.881-12.556,27.933-12.556c14.228,0,24.154,5.177,27.053,9.866c0.312,1.422,0.615,2.849,0.906,4.281  c0.77,3.793,4.105,6.411,7.832,6.411c0.029,0,0.058-0.004,0.086-0.004c0.019,0,0.037,0.003,0.056,0.003  c0.023,0,0.044-0.003,0.067-0.003c0.023,0,0.044,0.003,0.067,0.003c4.418,0,8-3.582,8-8c0-5.927,10.235-12.556,23.933-12.556  S440,178.073,440,184c0,4.418,3.582,8,8,8c0.175,0,0.346-0.015,0.517-0.026c0.116,0.005,0.228,0.028,0.345,0.028  c0.737,0,1.487-0.103,2.23-0.318C455.336,190.455,457.78,186.018,456.55,181.774z M296,440v8H168v-8c0-4.411,3.589-8,8-8h112  C292.411,432,296,435.589,296,440z M47.933,155.444c-5.054,0-9.856,0.644-14.27,1.818c14.706-31.811,37.49-60.086,66.051-81.487  c14.232-10.664,29.509-19.453,45.572-26.289c-5.194,4.395-10.245,9.199-15.128,14.424C106.02,89.74,87.375,124.786,76.673,164  C69.463,158.698,59.33,155.444,47.933,155.444z M115.933,155.444c-7.69,0-14.859,1.222-21.084,3.391  c10.29-32.903,26.534-62.101,47-84c14.658-15.685,30.878-27.227,48.069-34.354c-5.225,6.637-10.469,14.959-15.582,25.363  c-12.625,25.688-22.083,59.136-27.673,97.579C138.796,158.464,128.01,155.444,115.933,155.444z M272.067,155.444  c-12.561,0-23.694,2.599-32.067,6.983V104c0-4.418-3.582-8-8-8s-8,3.582-8,8v58.359c-8.357-4.342-19.438-6.915-31.933-6.915  c-10.999,0-20.906,1.992-28.822,5.43c5.435-34.546,14.257-65.196,25.451-87.973C199.355,51.213,211.648,37.546,224,33.37V64  c0,4.418,3.582,8,8,8s8-3.582,8-8V33.37c12.352,4.176,24.645,17.843,35.305,39.531c11.188,22.764,20.005,53.392,25.441,87.914  C292.853,157.414,283.001,155.444,272.067,155.444z M348.067,155.444c-12.077,0-22.863,3.02-30.73,7.979  c-5.589-38.443-15.048-71.891-27.673-97.579c-5.113-10.404-10.357-18.726-15.582-25.363c17.19,7.127,33.411,18.669,48.069,34.354  c20.466,21.899,36.71,51.097,47,84C362.926,156.667,355.756,155.444,348.067,155.444z M387.327,164  c-10.702-39.214-29.347-74.26-53.486-100.09c-4.883-5.225-9.933-10.029-15.128-14.424c16.063,6.835,31.34,15.625,45.572,26.289  c28.561,21.401,51.345,49.676,66.051,81.487c-4.414-1.174-9.216-1.818-14.27-1.818C404.67,155.444,394.537,158.698,387.327,164z" data-original="#000000" class="active-path" data-old_color="#000000" fill="#56B665"></path></g> </svg>