<svg width="101" height="101" viewBox="0 0 101 101" fill="none" xmlns="http://www.w3.org/2000/svg">
<path opacity="0.4" d="M50.5001 92.5833C73.7421 92.5833 92.5834 73.7419 92.5834 50.5C92.5834 27.258 73.7421 8.41663 50.5001 8.41663C27.2581 8.41663 8.41675 27.258 8.41675 50.5C8.41675 73.7419 27.2581 92.5833 50.5001 92.5833Z" fill="#263658"/>
<path d="M66.2812 45.1554V42.0834C66.2812 38.1696 66.2812 26.3021 50.5 26.3021C34.7187 26.3021 34.7187 38.1696 34.7187 42.0834V45.1554C29.5846 46.2917 27.8591 49.6163 27.8591 56.8125V61.0209C27.8591 70.2792 30.7208 73.1409 39.9792 73.1409H61.0208C70.2792 73.1409 73.1408 70.2792 73.1408 61.0209V56.8125C73.1408 49.6163 71.4154 46.2917 66.2812 45.1554ZM50.5 63.5459C47.9329 63.5459 45.8709 61.4838 45.8709 58.9167C45.8709 56.3496 47.9329 54.2875 50.5 54.2875C53.0671 54.2875 55.129 56.3496 55.129 58.9167C55.129 61.4838 53.0671 63.5459 50.5 63.5459ZM59.9687 44.6925H41.0312V42.0834C41.0312 35.9392 42.5462 32.6146 50.5 32.6146C58.4537 32.6146 59.9687 35.9392 59.9687 42.0834V44.6925Z" fill="#263658"/>
</svg>
