<svg width="38" height="37" viewBox="0 0 38 37" fill="none" xmlns="http://www.w3.org/2000/svg">
<path d="M6.92229 11.5013C6.94169 11.3085 6.91571 11.1139 6.84643 10.933C6.77714 10.7521 6.66648 10.5899 6.52329 10.4594L3.56563 6.87V6.33325H12.7458L19.8423 22.0162L26.0806 6.33325H34.8333V6.87L32.3047 9.30992C32.1976 9.39264 32.1149 9.50292 32.0655 9.62896C32.0162 9.75501 32.002 9.8921 32.0245 10.0256V27.9711C32.002 28.1046 32.0162 28.2417 32.0655 28.3677C32.1149 28.4937 32.1976 28.604 32.3047 28.6867L34.7747 31.1282V31.6666H22.3566V31.1298L24.9137 28.6282C25.1655 28.3748 25.1655 28.3004 25.1655 27.9141V13.4076L18.0531 31.6064H17.0936L8.81279 13.4076V25.6056C8.74471 26.1186 8.91413 26.6347 9.27196 27.0052L12.5985 31.0712V31.6064H3.16663V31.0712L6.49163 27.0052C6.66756 26.8217 6.79812 26.5995 6.8729 26.3565C6.94767 26.1134 6.96459 25.8563 6.92229 25.6056V11.5013Z" fill="#35353A"/>
</svg>
