<svg width="30" height="30" viewBox="0 0 30 30" fill="none" xmlns="http://www.w3.org/2000/svg">
<path d="M28.5004 6.98267C27.4884 7.41235 26.4166 7.69409 25.3198 7.81873C26.471 7.16147 27.3367 6.11918 27.7552 4.88661C26.6644 5.50392 25.4747 5.93871 24.2357 6.17286C23.714 5.64157 23.0864 5.21918 22.3913 4.93147C21.6961 4.64376 20.948 4.49676 20.1925 4.49943C17.1334 4.49943 14.6534 6.87504 14.6534 9.80191C14.6534 10.2167 14.702 10.6222 14.7965 11.0094C12.6022 10.9079 10.4537 10.3629 8.48819 9.409C6.52266 8.45512 4.78324 7.11337 3.38092 5.46936C2.88928 6.27576 2.63088 7.19632 2.63302 8.13373C2.63302 9.97516 3.61042 11.5987 5.09542 12.5477C4.21722 12.5201 3.35799 12.2921 2.58712 11.8822V11.9478C2.58712 14.5177 4.49737 16.661 7.02862 17.1493C6.55289 17.272 6.0628 17.3342 5.57062 17.3343C5.21287 17.3343 4.86592 17.3015 4.52707 17.2359C4.88898 18.2963 5.58156 19.2208 6.50862 19.881C7.43568 20.5412 8.5512 20.9044 9.70026 20.9201C7.72936 22.396 5.30982 23.1934 2.82202 23.1868C2.37382 23.1868 1.93372 23.1605 1.50037 23.1133C4.04006 24.676 6.98487 25.5037 9.99051 25.4994C20.179 25.4994 25.7491 17.4183 25.7491 10.4109L25.7302 9.72447C26.8167 8.98117 27.7554 8.05215 28.5004 6.98267V6.98267Z" fill="#458BF2"/>
</svg>
